<svg width="58" height="15" viewBox="0 0 58 15" fill="none" xmlns="http://www.w3.org/2000/svg">
<path d="M13.7214 6.65684C10.7287 7.42704 8.37236 9.7834 7.60216 12.7761C7.42719 13.4565 7.33398 14.1699 7.33398 14.9053H9.46326C9.46326 14.1589 9.5912 13.4421 9.82675 12.7761C10.4682 10.9611 11.9065 9.52285 13.7214 8.88144C14.3874 8.64589 15.1042 8.51795 15.8507 8.51795V6.38867C15.1156 6.38825 14.4022 6.48145 13.7214 6.65684Z" fill="#A5E547"/>
<path d="M9.8267 2.12927C9.59115 1.46329 9.46321 0.746475 9.46321 0H7.33393C7.33393 0.746475 7.20599 1.46329 6.97044 2.12927C6.32903 3.9442 4.89073 5.3825 3.07581 6.02391C2.40983 6.25946 1.69301 6.3874 0.946533 6.3874V8.51667C1.69301 8.51667 2.40983 8.64462 3.07581 8.88017C4.76321 9.47667 6.12441 10.7625 6.82301 12.3986C7.06364 11.5297 7.42332 10.712 7.88595 9.96556C7.1488 8.93185 6.18584 8.07099 5.06994 7.45246C6.46756 6.6776 7.62413 5.52103 8.39899 4.1234C9.01795 5.2393 9.87839 6.20226 10.9121 6.93942C11.6586 6.47679 12.4762 6.11711 13.3451 5.87648C11.709 5.17745 10.4232 3.81668 9.8267 2.12927Z" fill="#F6F6F6"/>
<path d="M22.7579 1.87207L17.8506 12.8678H19.8197L21.0883 10.0122H26.8884L28.1571 12.8678H30.159L25.2518 1.87207H22.7579ZM21.7957 8.42025L23.2827 5.07269L23.9229 3.51366H24.0545L24.6948 5.07269L26.1817 8.42025H21.7957Z" fill="#F6F6F6"/>
<path d="M46.1002 4.94181C45.7062 4.6794 45.1975 4.54785 44.5741 4.54785C44.0164 4.54785 43.5426 4.65211 43.1543 4.85924C42.7659 5.06706 42.4566 5.34906 42.2271 5.70452C41.9976 6.05999 41.8444 6.46234 41.7674 6.91088H41.6526V4.71159H40.0278V12.8678H41.8003V8.28937C41.8003 7.56724 41.9535 7.01514 42.26 6.63168C42.5658 6.24892 43.0696 6.05719 43.77 6.05719C44.3823 6.05719 44.8204 6.19434 45.0828 6.46724C45.3452 6.74084 45.4767 7.17258 45.4767 7.76386V8.486H47.2331V7.41959C47.2331 6.90528 47.1428 6.42946 46.9623 5.99212C46.7817 5.55478 46.4941 5.20421 46.1002 4.94181Z" fill="#F6F6F6"/>
<path d="M57.0535 8.12493V7.96119C57.0535 7.27195 56.8702 6.67297 56.5035 6.16426C56.1369 5.65554 55.6365 5.25879 55.0019 4.97469C54.3672 4.6899 53.6395 4.54785 52.8194 4.54785C51.9223 4.54785 51.14 4.72559 50.4725 5.08105C49.8049 5.43652 49.2878 5.93194 48.9211 6.56591C48.5545 7.20057 48.3718 7.9444 48.3718 8.79808C48.3718 9.62937 48.5545 10.3655 48.9211 11.0058C49.2878 11.646 49.8049 12.1435 50.4725 12.499C51.1393 12.8545 51.9223 13.0322 52.8194 13.0322C53.6402 13.0322 54.3672 12.8902 55.0019 12.6054C55.6365 12.3213 56.1369 11.9217 56.5035 11.4074C56.8702 10.8931 57.0535 10.2969 57.0535 9.61888V9.43834H55.2972V9.5531C55.2972 10.1878 55.0782 10.6608 54.6408 10.9729C54.2028 11.285 53.5849 11.4403 52.7865 11.4403C51.8677 11.4403 51.1946 11.2185 50.7677 10.7756C50.3409 10.3326 50.1275 9.67346 50.1275 8.79808C50.1275 7.91221 50.3409 7.24745 50.7677 6.80382C51.1946 6.36088 51.867 6.13906 52.7865 6.13906C53.5849 6.13906 54.2035 6.29511 54.6408 6.60719C55.0782 6.91858 55.2972 7.3923 55.2972 8.02697V8.12563H57.0535V8.12493Z" fill="#F6F6F6"/>
<path d="M37.0272 4.98239C36.4744 4.6927 35.7663 4.54785 34.9021 4.54785C34.0379 4.54785 33.2962 4.6899 32.6783 4.97469C32.0597 5.25949 31.5867 5.64505 31.2585 6.13137C30.9304 6.61839 30.7666 7.17328 30.7666 7.79745V7.86323H32.523V7.79745C32.523 7.19567 32.7091 6.76323 33.0807 6.50083C33.4522 6.23843 34.0162 6.10688 34.7712 6.10688C35.5591 6.10688 36.114 6.24123 36.4373 6.50923C36.7599 6.77723 36.9215 7.25095 36.9215 7.929V8.40553L33.2129 8.79808C32.6769 8.86386 32.2116 8.97862 31.8176 9.14236C31.4237 9.30679 31.12 9.53351 30.9066 9.8232C30.7141 10.0849 30.6134 10.4047 30.5945 10.777L31.3544 12.4801C31.8498 12.8475 32.5125 13.0322 33.3438 13.0322C34.2737 13.0322 35.0476 12.8384 35.6662 12.45C36.2841 12.0617 36.7025 11.5229 36.9215 10.8336H37.0363V12.8685H38.6611V7.91221C38.6611 7.25585 38.5268 6.67577 38.2588 6.17265C37.9901 5.66954 37.58 5.27278 37.0272 4.98239ZM36.5269 10.7679C36.2645 11.1072 35.9034 11.3556 35.4437 11.5145C34.984 11.6733 34.4424 11.7524 33.8189 11.7524C33.3158 11.7524 32.9463 11.6733 32.7112 11.5145C32.4761 11.3563 32.3585 11.1121 32.3585 10.7839C32.3585 10.467 32.4705 10.2403 32.6951 10.1031C32.919 9.96665 33.2612 9.87079 33.7209 9.81551L36.9208 9.45654C36.9201 9.99254 36.7893 10.4292 36.5269 10.7679Z" fill="#F6F6F6"/>
</svg>
