<svg width="130" height="60" viewBox="0 0 130 60" fill="none" xmlns="http://www.w3.org/2000/svg">
<path d="M43.5004 27.8537C35.8477 29.8232 29.8222 35.8487 27.8527 43.5014C27.4053 45.2412 27.167 47.0656 27.167 48.9462H32.6118C32.6118 47.0374 32.939 45.2044 33.5413 43.5014C35.1815 38.8604 38.8594 35.1825 43.5004 33.5423C45.2034 32.94 47.0364 32.6128 48.9452 32.6128V27.168C47.0657 27.1669 45.2413 27.4052 43.5004 27.8537Z" fill="#A5E547"/>
<path d="M33.5412 16.2778C32.9389 14.5748 32.6117 12.7418 32.6117 10.833H27.1669C27.1669 12.7418 26.8397 14.5748 26.2374 16.2778C24.5972 20.9188 20.9193 24.5968 16.2783 26.2369C14.5753 26.8393 12.7423 27.1664 10.8335 27.1664V32.6113C12.7423 32.6113 14.5753 32.9384 16.2783 33.5408C20.5932 35.0661 24.074 38.354 25.8604 42.5378C26.4757 40.3159 27.3955 38.2251 28.5785 36.3163C26.6935 33.6729 24.2311 31.4716 21.3776 29.8899C24.9515 27.9085 27.909 24.951 29.8904 21.3771C31.4732 24.2306 33.6734 26.693 36.3167 28.578C38.2256 27.395 40.3164 26.4753 42.5383 25.8599C38.3545 24.0724 35.0666 20.5928 33.5412 16.2778Z" fill="#F6F6F6"/>
<path d="M66.0706 21.377L58.4731 38.4005H61.5216L63.4857 33.9794H72.4655L74.4296 38.4005H77.529L69.9316 21.377H66.0706ZM64.581 31.5148L66.8831 26.3321L67.8743 23.9185H68.078L69.0692 26.3321L71.3713 31.5148H64.581Z" fill="#F6F6F6"/>
<path d="M102.208 26.1285C101.598 25.7222 100.811 25.5186 99.8455 25.5186C98.9821 25.5186 98.2487 25.68 97.6475 26.0006C97.0462 26.3224 96.5674 26.759 96.212 27.3093C95.8567 27.8596 95.6195 28.4826 95.5003 29.177H95.3226V25.7721H92.8071V38.3994H95.5512V31.3111C95.5512 30.1931 95.7885 29.3384 96.263 28.7447C96.7364 28.1521 97.5164 27.8553 98.6008 27.8553C99.5487 27.8553 100.227 28.0676 100.633 28.4901C101.039 28.9137 101.243 29.5821 101.243 30.4976V31.6156H103.962V29.9646C103.962 29.1683 103.822 28.4316 103.543 27.7546C103.263 27.0775 102.818 26.5347 102.208 26.1285Z" fill="#F6F6F6"/>
<path d="M119.167 31.0575V30.804C119.167 29.7369 118.883 28.8096 118.315 28.022C117.748 27.2344 116.973 26.6202 115.991 26.1804C115.008 25.7394 113.881 25.5195 112.612 25.5195C111.223 25.5195 110.012 25.7947 108.978 26.345C107.945 26.8954 107.144 27.6624 106.576 28.6439C106.009 29.6264 105.726 30.778 105.726 32.0997C105.726 33.3867 106.009 34.5264 106.576 35.5176C107.144 36.5089 107.945 37.2791 108.978 37.8294C110.011 38.3798 111.223 38.6549 112.612 38.6549C113.882 38.6549 115.008 38.435 115.991 37.9941C116.973 37.5543 117.748 36.9357 118.315 36.1394C118.883 35.3432 119.167 34.4202 119.167 33.3704V33.0909H116.448V33.2686C116.448 34.2512 116.109 34.9835 115.432 35.4667C114.753 35.9499 113.797 36.1904 112.561 36.1904C111.138 36.1904 110.096 35.8469 109.435 35.1612C108.775 34.4754 108.444 33.4549 108.444 32.0997C108.444 30.7282 108.775 29.699 109.435 29.0122C110.096 28.3264 111.137 27.983 112.561 27.983C113.797 27.983 114.755 28.2246 115.432 28.7078C116.109 29.1899 116.448 29.9233 116.448 30.9059V31.0586H119.167V31.0575Z" fill="#F6F6F6"/>
<path d="M88.1617 26.1913C87.3059 25.7428 86.2096 25.5186 84.8716 25.5186C83.5337 25.5186 82.3854 25.7385 81.4288 26.1794C80.4711 26.6203 79.7388 27.2172 79.2307 27.9701C78.7226 28.7241 78.4691 29.5832 78.4691 30.5496V30.6514H81.1883V30.5496C81.1883 29.6179 81.4765 28.9484 82.0517 28.5421C82.627 28.1359 83.5001 27.9322 84.6691 27.9322C85.8889 27.9322 86.748 28.1402 87.2485 28.5551C87.7479 28.9701 87.9981 29.7035 87.9981 30.7532V31.491L82.2565 32.0987C81.4266 32.2006 80.7062 32.3782 80.0963 32.6317C79.4864 32.8863 79.0162 33.2373 78.6858 33.6858C78.3879 34.091 78.2319 34.5861 78.2026 35.1624L79.3791 37.7992C80.1461 38.368 81.1721 38.654 82.4591 38.654C83.8988 38.654 85.097 38.3539 86.0546 37.7526C87.0112 37.1514 87.6591 36.3172 87.9981 35.2501H88.1758V38.4005H90.6913V30.7272C90.6913 29.7111 90.4833 28.813 90.0684 28.0341C89.6524 27.2551 89.0176 26.6409 88.1617 26.1913ZM87.3871 35.1483C86.9809 35.6737 86.4219 36.0583 85.7101 36.3042C84.9984 36.5501 84.1599 36.6726 83.1946 36.6726C82.4157 36.6726 81.8437 36.5501 81.4797 36.3042C81.1157 36.0594 80.9337 35.6813 80.9337 35.1732C80.9337 34.6825 81.1071 34.3315 81.4548 34.1191C81.8015 33.9079 82.3312 33.7595 83.043 33.6739L87.9971 33.1181C87.996 33.948 87.7934 34.624 87.3871 35.1483Z" fill="#F6F6F6"/>
</svg>
