<svg width="40" height="40" viewBox="0 0 40 40" fill="none" xmlns="http://www.w3.org/2000/svg">
<rect width="40" height="40" rx="12" fill="#2A441B"/>
<rect x="0.5" y="0.5" width="39" height="39" rx="11.5" stroke="#A5E547" stroke-opacity="0.2"/>
<g clip-path="url(#clip0_3169_56668)">
<path d="M20 10.833V12.6663M20 27.333V29.1663M12.6667 19.9997H10.8334M14.788 14.7876L13.4916 13.4913M25.2121 14.7876L26.5085 13.4913M14.788 25.2155L13.4916 26.5119M25.2121 25.2155L26.5085 26.5119M29.1667 19.9997H27.3334M24.5834 19.9997C24.5834 22.531 22.5313 24.583 20 24.583C17.4687 24.583 15.4167 22.531 15.4167 19.9997C15.4167 17.4684 17.4687 15.4163 20 15.4163C22.5313 15.4163 24.5834 17.4684 24.5834 19.9997Z" stroke="#A5E547" stroke-width="2" stroke-linecap="round" stroke-linejoin="round"/>
</g>
<defs>
<clipPath id="clip0_3169_56668">
<rect width="22" height="22" fill="white" transform="translate(9 9)"/>
</clipPath>
</defs>
</svg>
