<svg width="14" height="14" viewBox="0 0 14 14" fill="none" xmlns="http://www.w3.org/2000/svg">
                                <path d="M7.00008 9.33366V7.00033M7.00008 4.66699H7.00592M1.16675 4.97193V9.02873C1.16675 9.1714 1.16675 9.24274 1.18287 9.30988C1.19716 9.3694 1.22072 9.4263 1.25271 9.47849C1.28878 9.53736 1.33923 9.5878 1.44012 9.68869L4.31171 12.5603C4.4126 12.6612 4.46305 12.7116 4.52192 12.7477C4.57411 12.7797 4.63101 12.8033 4.69053 12.8175C4.75766 12.8337 4.829 12.8337 4.97168 12.8337H9.02848C9.17116 12.8337 9.2425 12.8337 9.30963 12.8175C9.36915 12.8033 9.42606 12.7797 9.47825 12.7477C9.53712 12.7116 9.58756 12.6612 9.68845 12.5603L12.56 9.68869C12.6609 9.5878 12.7114 9.53736 12.7475 9.47849C12.7794 9.4263 12.803 9.3694 12.8173 9.30988C12.8334 9.24274 12.8334 9.1714 12.8334 9.02873V4.97193C12.8334 4.82925 12.8334 4.75791 12.8173 4.69077C12.803 4.63125 12.7794 4.57435 12.7475 4.52216C12.7114 4.46329 12.6609 4.41285 12.56 4.31196L9.68845 1.44036C9.58756 1.33947 9.53712 1.28903 9.47825 1.25295C9.42606 1.22097 9.36915 1.1974 9.30963 1.18311C9.2425 1.16699 9.17116 1.16699 9.02848 1.16699H4.97168C4.829 1.16699 4.75766 1.16699 4.69053 1.18311C4.63101 1.1974 4.57411 1.22097 4.52192 1.25295C4.46305 1.28903 4.4126 1.33947 4.31171 1.44036L1.44012 4.31196C1.33923 4.41285 1.28878 4.46329 1.25271 4.52216C1.22072 4.57435 1.19716 4.63125 1.18287 4.69077C1.16675 4.75791 1.16675 4.82925 1.16675 4.97193Z" stroke="#FFB74D" stroke-linecap="round" stroke-linejoin="round" />
                            </svg>