<svg width="149" height="31" viewBox="0 0 149 31" fill="none" xmlns="http://www.w3.org/2000/svg">
<path d="M3.2385 20.9216C3.1252 21.0372 2.98932 21.1284 2.83931 21.1894C2.68931 21.2504 2.52836 21.2799 2.36648 21.276C2.2046 21.2799 2.04365 21.2504 1.89365 21.1894C1.74364 21.1284 1.60776 21.0372 1.49446 20.9216C1.37877 20.8082 1.28761 20.6724 1.22663 20.5224C1.16565 20.3724 1.13616 20.2114 1.13998 20.0495V11.3269C1.13936 11.1656 1.17058 11.0057 1.23187 10.8564C1.29315 10.7071 1.38329 10.5714 1.49712 10.457C1.61095 10.3427 1.74623 10.2519 1.8952 10.1899C2.04418 10.1279 2.20393 10.0959 2.3653 10.0957C2.52726 10.0949 2.68777 10.1262 2.83757 10.1878C2.98737 10.2494 3.12349 10.3401 3.23807 10.4545C3.35265 10.569 3.44342 10.705 3.50515 10.8548C3.56688 11.0045 3.59834 11.165 3.59771 11.3269V20.0495C3.60056 20.2117 3.57017 20.3728 3.50839 20.5227C3.44661 20.6727 3.35476 20.8084 3.2385 20.9216Z" fill="white"/>
<path d="M23.5137 14.6761C23.4389 14.312 23.2905 13.967 23.0777 13.6623C22.8455 13.3381 22.543 13.0707 22.1927 12.8801C21.8162 12.6658 21.3372 12.5587 20.7559 12.5587H11.4968C10.8982 12.5587 10.4149 12.6658 10.047 12.8801C9.70211 13.0732 9.4043 13.3403 9.17499 13.6623C8.96384 13.9674 8.81709 14.3124 8.7437 14.6761C8.66981 15.0087 8.63022 15.348 8.62554 15.6887V20.05C8.62497 20.2934 8.5524 20.5312 8.41696 20.7335C8.28152 20.9358 8.08927 21.0934 7.86441 21.1867C7.63955 21.2799 7.39213 21.3045 7.15331 21.2574C6.91448 21.2103 6.69493 21.0936 6.52229 20.922C6.40661 20.8087 6.31544 20.6729 6.25446 20.5228C6.19349 20.3728 6.16399 20.2119 6.16781 20.05V15.6887C6.17043 15.0217 6.27851 14.3593 6.48802 13.7261C6.69425 13.0802 7.0087 12.4741 7.41794 11.9336C7.82255 11.3991 8.32795 10.9491 8.90558 10.609C9.50554 10.2623 10.1884 10.0851 10.8812 10.0962H21.6338C22.2981 10.1193 22.9444 10.3182 23.5066 10.6728C24.0517 11.0215 24.526 11.4701 24.9045 11.995C25.2939 12.5338 25.5929 13.1324 25.7895 13.7674C25.9906 14.389 26.0946 15.0378 26.0979 15.6911V20.0524C26.0979 20.3789 25.9682 20.6921 25.7373 20.923C25.5064 21.1539 25.1932 21.2836 24.8667 21.2836C24.5401 21.2836 24.2269 21.1539 23.996 20.923C23.7651 20.6921 23.6354 20.3789 23.6354 20.0524V15.6887C23.6296 15.3479 23.5888 15.0086 23.5137 14.6761Z" fill="white"/>
<path d="M48.5935 10.4551C48.7663 10.6273 48.884 10.847 48.9318 11.0862C48.9795 11.3254 48.9551 11.5734 48.8617 11.7987C48.7683 12.024 48.61 12.2165 48.407 12.3518C48.204 12.487 47.9654 12.559 47.7215 12.5584H40.1274V20.0497C40.1274 20.2114 40.0955 20.3715 40.0336 20.5209C39.9718 20.6703 39.8811 20.806 39.7667 20.9204C39.6524 21.0347 39.5167 21.1254 39.3673 21.1873C39.2179 21.2491 39.0578 21.281 38.8961 21.281C38.7344 21.281 38.5743 21.2491 38.425 21.1873C38.2756 21.1254 38.1399 21.0347 38.0255 20.9204C37.9112 20.806 37.8205 20.6703 37.7586 20.5209C37.6968 20.3715 37.6649 20.2114 37.6649 20.0497V12.5584H29.968C29.6637 12.5263 29.3812 12.3853 29.1727 12.1614C29.0646 12.0514 28.9794 11.921 28.9222 11.7778C28.865 11.6346 28.8369 11.4814 28.8395 11.3272C28.8389 11.1653 28.8703 11.0049 28.932 10.8553C28.9936 10.7056 29.0843 10.5696 29.1987 10.4552C29.3132 10.3407 29.4492 10.25 29.5988 10.1884C29.7485 10.1267 29.9089 10.0953 30.0708 10.0959H47.7215C47.8837 10.0927 48.0449 10.123 48.1949 10.1848C48.3449 10.2466 48.4806 10.3386 48.5935 10.4551Z" fill="white"/>
<path d="M56.8017 12.5586C56.2022 12.5586 55.719 12.6658 55.3519 12.88C55.007 13.0732 54.7092 13.3403 54.4799 13.6623C54.267 13.967 54.1187 14.312 54.0438 14.6761C53.8894 15.3427 53.8894 16.0359 54.0438 16.7025C54.1189 17.0662 54.2673 17.4107 54.4799 17.7152C54.7088 18.0374 55.0067 18.3046 55.3519 18.4974C55.7197 18.7124 56.203 18.8196 56.8017 18.8188H70.9372C71.0989 18.8188 71.259 18.8506 71.4084 18.9125C71.5578 18.9744 71.6935 19.0651 71.8078 19.1794C71.9221 19.2937 72.0128 19.4294 72.0747 19.5788C72.1366 19.7282 72.1684 19.8883 72.1684 20.05C72.1684 20.2117 72.1366 20.3718 72.0747 20.5212C72.0128 20.6705 71.9221 20.8063 71.8078 20.9206C71.6935 21.0349 71.5578 21.1256 71.4084 21.1875C71.259 21.2494 71.0989 21.2812 70.9372 21.2812H55.9805C55.32 21.2928 54.6701 21.1149 54.1077 20.7684C53.5589 20.4249 53.0837 19.9759 52.7098 19.4474C52.3189 18.8962 52.02 18.2853 51.8248 17.6383C51.6251 17.0076 51.5216 16.3503 51.5176 15.6887C51.5202 15.0217 51.6283 14.3593 51.8378 13.7261C52.0459 13.0788 52.3623 12.4715 52.7736 11.93C53.179 11.3968 53.6848 10.9481 54.2624 10.609C54.862 10.2625 55.5445 10.0852 56.2369 10.0962H70.9372C71.2637 10.0962 71.5769 10.2259 71.8078 10.4568C72.0387 10.6877 72.1684 11.0009 72.1684 11.3274C72.1684 11.654 72.0387 11.9671 71.8078 12.198C71.5769 12.4289 71.2637 12.5586 70.9372 12.5586H56.8017ZM70.7328 14.8167C70.9056 14.989 71.0234 15.2087 71.0711 15.448C71.1188 15.6873 71.0943 15.9354 71.0007 16.1608C70.9072 16.3862 70.7487 16.5787 70.5455 16.7138C70.3424 16.849 70.1036 16.9207 69.8596 16.9199H57.0841C56.7576 16.9199 56.4444 16.7902 56.2135 16.5593C55.9826 16.3284 55.8529 16.0152 55.8529 15.6887C55.8529 15.3622 55.9826 15.049 56.2135 14.8181C56.4444 14.5872 56.7576 14.4575 57.0841 14.4575H69.8596C70.0219 14.4546 70.1832 14.485 70.3333 14.5468C70.4835 14.6085 70.6195 14.7004 70.7328 14.8167Z" fill="white"/>
<path d="M92.5663 10.4551C92.7385 10.2823 92.9581 10.1646 93.1974 10.1169C93.4366 10.0691 93.6846 10.0935 93.9099 10.1869C94.1352 10.2804 94.3277 10.4386 94.463 10.6416C94.5982 10.8446 94.6701 11.0832 94.6696 11.3271V18.7925C94.6773 19.1205 94.6185 19.4467 94.4967 19.7513C94.3748 20.0559 94.1924 20.3327 93.9606 20.5649C93.7333 20.7996 93.4598 20.9846 93.1574 21.1083C92.855 21.2319 92.5302 21.2915 92.2036 21.2833C91.7319 21.2812 91.2701 21.1483 90.8695 20.8993L79.1197 13.7151C78.7947 13.5273 78.5289 13.3784 78.3115 13.2661C78.1513 13.1711 77.9714 13.1141 77.7856 13.0995C77.5292 13.0995 77.3662 13.2626 77.2988 13.5875C77.219 14.0534 77.1846 14.5259 77.196 14.9984V20.0521C77.2011 20.217 77.1731 20.3814 77.1135 20.5353C77.0538 20.6892 76.9639 20.8296 76.849 20.9481C76.7342 21.0666 76.5966 21.1608 76.4446 21.2251C76.2926 21.2895 76.1293 21.3226 75.9642 21.3226C75.7992 21.3226 75.6358 21.2895 75.4838 21.2251C75.3318 21.1608 75.1943 21.0666 75.0794 20.9481C74.9645 20.8296 74.8746 20.6892 74.815 20.5353C74.7554 20.3814 74.7273 20.217 74.7324 20.0521V12.5843C74.7245 12.2563 74.7832 11.9301 74.9051 11.6254C75.027 11.3208 75.2094 11.044 75.4414 10.8119C75.6687 10.5772 75.9421 10.3922 76.2446 10.2686C76.547 10.1449 76.8718 10.0853 77.1984 10.0935C77.4385 10.0932 77.6773 10.1278 77.9074 10.1963C78.1289 10.2611 78.3404 10.3562 78.536 10.4787L90.2846 17.6617C90.61 17.8492 90.8794 17.9988 91.0928 18.1107C91.2535 18.2058 91.4338 18.2628 91.6198 18.2773C91.8763 18.2773 92.0381 18.1154 92.1067 17.7893C92.1866 17.3235 92.221 16.851 92.2095 16.3785V11.3271C92.206 11.1651 92.2358 11.004 92.2972 10.854C92.3586 10.704 92.4502 10.5682 92.5663 10.4551Z" fill="white"/>
<path d="M116.987 10.4551C117.16 10.6273 117.277 10.847 117.325 11.0862C117.373 11.3254 117.348 11.5734 117.255 11.7987C117.162 12.024 117.003 12.2165 116.8 12.3518C116.597 12.487 116.359 12.559 116.115 12.5584H108.521V20.0497C108.521 20.3763 108.391 20.6895 108.16 20.9204C107.929 21.1513 107.616 21.281 107.289 21.281C106.963 21.281 106.65 21.1513 106.419 20.9204C106.188 20.6895 106.058 20.3763 106.058 20.0497V12.5584H98.3624C98.0577 12.5266 97.7748 12.3856 97.566 12.1614C97.4579 12.0514 97.3727 11.921 97.3155 11.7778C97.2583 11.6346 97.2302 11.4814 97.2328 11.3272C97.2322 11.1653 97.2636 11.0049 97.3253 10.8553C97.3869 10.7056 97.4776 10.5696 97.5921 10.4552C97.7065 10.3407 97.8425 10.25 97.9921 10.1884C98.1418 10.1267 98.3022 10.0953 98.4641 10.0959H116.115C116.277 10.0927 116.438 10.123 116.588 10.1848C116.738 10.2466 116.874 10.3386 116.987 10.4551Z" fill="white"/>
<path d="M140.38 12.9492L142.169 14.5337L148.29 9.40677V1.06348L146.411 2.42586L145.455 3.12301L144.439 3.86387L144.21 4.03048C142.509 5.26762 140.582 6.669 138.804 8.20981L138.54 8.43431C137.889 8.98612 137.152 9.61591 136.732 10.6297C136.292 11.6839 136.265 12.8653 136.658 13.9382C137.215 15.3987 138.391 16.2825 139.43 17.0624C139.653 17.2302 139.864 17.3885 140.063 17.548C141.393 18.6114 142.75 19.6855 144.063 20.7218L145.606 21.9424V24.7558L136.372 17.4877L136.379 20.4417L147.973 29.6724V20.7962L147.525 20.4417L145.531 18.8655C144.22 17.8304 142.866 16.7611 141.543 15.7C141.315 15.518 141.08 15.3455 140.85 15.1694C139.994 14.5255 139.183 13.9169 138.87 13.0957C138.69 12.5864 138.708 12.0279 138.921 11.5313C139.122 11.0445 139.54 10.69 140.07 10.2398C140.165 10.161 140.26 10.0823 140.354 10.0035C142.056 8.52884 143.939 7.15818 145.602 5.9494L145.831 5.78279L145.923 5.71544V8.30197L140.38 12.9492Z" fill="url(#paint0_linear_3169_56276)"/>
<path d="M135.083 13.4155L135.074 10.4615L123.477 1.23438V10.1035L123.925 10.458C124.589 10.985 125.254 11.5108 125.919 12.0354C127.229 13.0705 128.584 14.1398 129.906 15.1997C130.135 15.3829 130.37 15.5601 130.599 15.7315C131.456 16.3754 132.267 16.9839 132.58 17.8052C132.76 18.3146 132.742 18.8729 132.529 19.3696C132.328 19.8564 131.909 20.2109 131.38 20.6599L131.096 20.9021C129.394 22.3768 127.511 23.7474 125.848 24.9562L125.619 25.1228L125.527 25.189V22.6013L131.075 17.96L129.286 16.3707L123.165 21.5024V29.8433L125.044 28.4798L126 27.7826L127.016 27.0429L127.245 26.8763C128.945 25.6392 130.873 24.2378 132.651 22.697C132.738 22.6214 132.826 22.5457 132.914 22.4725C133.564 21.9207 134.303 21.2909 134.722 20.2759C135.163 19.2218 135.189 18.0403 134.797 16.9674C134.239 15.5069 133.063 14.6243 132.025 13.8444C131.801 13.6766 131.591 13.5183 131.391 13.3588C130.062 12.2954 128.704 11.2213 127.39 10.1838L125.854 8.96442V6.14393L135.083 13.4155Z" fill="url(#paint1_linear_3169_56276)"/>
<defs>
<linearGradient id="paint0_linear_3169_56276" x1="136.372" y1="15.3668" x2="148.29" y2="15.3668" gradientUnits="userSpaceOnUse">
<stop stop-color="#FF0420"/>
<stop offset="1" stop-color="#BD2738"/>
</linearGradient>
<linearGradient id="paint1_linear_3169_56276" x1="123.165" y1="15.5353" x2="135.083" y2="15.5353" gradientUnits="userSpaceOnUse">
<stop stop-color="#FF0420"/>
<stop offset="1" stop-color="#BD2738"/>
</linearGradient>
</defs>
</svg>
